<svg xmlns="http://www.w3.org/2000/svg" width="16.593" height="24.792" viewBox="0 0 16.593 24.792"><defs><style>.a{fill:#343a40;}</style></defs><path class="a" d="M-96.738,96.8v.553a5.383,5.383,0,0,1-5.377,5.378h-.324a3.148,3.148,0,0,0-3.145,3.145v.554a3.879,3.879,0,0,1,2.757,3.708,3.878,3.878,0,0,1-3.873,3.873,3.878,3.878,0,0,1-3.873-3.873,3.879,3.879,0,0,1,2.757-3.708V96.8a3.88,3.88,0,0,1-2.757-3.708,3.878,3.878,0,0,1,3.873-3.873,3.878,3.878,0,0,1,3.873,3.873,3.88,3.88,0,0,1-2.757,3.708v4.716a5.348,5.348,0,0,1,3.145-1.018h.324a3.148,3.148,0,0,0,3.144-3.145V96.8a3.88,3.88,0,0,1-2.757-3.708,3.878,3.878,0,0,1,3.873-3.873,3.878,3.878,0,0,1,3.874,3.873A3.88,3.88,0,0,1-96.738,96.8Zm-11.6,13.337a1.642,1.642,0,0,0,1.64,1.64,1.642,1.642,0,0,0,1.64-1.64,1.635,1.635,0,0,0-.524-1.2,1.633,1.633,0,0,0-1.117-.442,1.632,1.632,0,0,0-1.117.442A1.635,1.635,0,0,0-108.341,110.133Zm3.281-17.045a1.642,1.642,0,0,0-1.64-1.64,1.642,1.642,0,0,0-1.64,1.64,1.634,1.634,0,0,0,.524,1.2,1.632,1.632,0,0,0,1.117.442,1.633,1.633,0,0,0,1.117-.442A1.635,1.635,0,0,0-105.06,93.088Zm7.206-1.64a1.642,1.642,0,0,0-1.64,1.64,1.635,1.635,0,0,0,.524,1.2,1.634,1.634,0,0,0,1.117.442,1.633,1.633,0,0,0,1.117-.442,1.634,1.634,0,0,0,.524-1.2A1.642,1.642,0,0,0-97.855,91.448Z" transform="translate(110.574 -89.215)"/></svg>