<svg xmlns="http://www.w3.org/2000/svg" width="28" height="29.249" viewBox="0 0 28 29.249"><defs><style>.a{fill:#343a40;}</style></defs><path class="a" d="M46.286,26.238l-2.512-1.451a11.359,11.359,0,0,0,0-4.14L46.286,19.2a.713.713,0,0,0,.324-.826,14.687,14.687,0,0,0-3.226-5.579.71.71,0,0,0-.873-.136L40,14.108a11.129,11.129,0,0,0-3.585-2.07v-2.9a.706.706,0,0,0-.554-.69,14.825,14.825,0,0,0-6.439,0,.706.706,0,0,0-.554.69v2.9a11.48,11.48,0,0,0-3.585,2.07l-2.506-1.451a.7.7,0,0,0-.873.136,14.6,14.6,0,0,0-3.226,5.579A.705.705,0,0,0,19,19.2l2.512,1.451a11.359,11.359,0,0,0,0,4.14L19,26.244a.713.713,0,0,0-.324.826A14.687,14.687,0,0,0,21.9,32.648a.71.71,0,0,0,.873.136l2.512-1.451a11.129,11.129,0,0,0,3.585,2.07v2.9a.706.706,0,0,0,.554.69,14.825,14.825,0,0,0,6.439,0,.706.706,0,0,0,.554-.69V33.4a11.48,11.48,0,0,0,3.585-2.07l2.512,1.451a.7.7,0,0,0,.873-.136,14.6,14.6,0,0,0,3.226-5.579A.728.728,0,0,0,46.286,26.238Zm-13.646,1.2a4.718,4.718,0,1,1,4.718-4.718A4.724,4.724,0,0,1,32.641,27.435Z" transform="translate(-18.644 -8.099)"/></svg>