<svg xmlns="http://www.w3.org/2000/svg" width="110.769" height="24.083" viewBox="0 0 110.769 24.083"><defs><style>.a{fill:#fff;}</style></defs><path class="a" d="M452.414,429.685c-.048,0-.072.048-.072.1s.024.072.072.1a11.947,11.947,0,0,1,7.24,3.416,11.823,11.823,0,0,1,0,16.745,11.948,11.948,0,0,1-7.24,3.416c-.048,0-.072.048-.072.1s.024.072.072.1a12.041,12.041,0,1,0,0-23.963Z" transform="translate(-452.342 -429.625)"/><path class="a" d="M748.337,459.982a9.745,9.745,0,0,1-.29,2.381,6.311,6.311,0,0,1-.917,2.044,4.7,4.7,0,0,1-1.689,1.443,5.647,5.647,0,0,1-2.607.553,5.79,5.79,0,0,1-2.607-.553,4.5,4.5,0,0,1-1.689-1.443,5.436,5.436,0,0,1-.917-2.044,11.083,11.083,0,0,1-.29-2.381V447.6h-2.051v12.6a11.685,11.685,0,0,0,.338,2.645,7.047,7.047,0,0,0,1.182,2.6,6.912,6.912,0,0,0,2.317,1.972,7.78,7.78,0,0,0,3.741.769,8.035,8.035,0,0,0,3.716-.769,6.469,6.469,0,0,0,2.317-1.972,7.046,7.046,0,0,0,1.183-2.6,11.856,11.856,0,0,0,.338-2.645V447.6h-2.051v12.384Z" transform="translate(-704.428 -445.631)"/><path class="a" d="M1051.229,454.395a7.416,7.416,0,0,0-1.931-1.034c-.7-.264-1.424-.505-2.124-.745-.579-.192-1.11-.385-1.641-.577a5.892,5.892,0,0,1-1.4-.721,3.754,3.754,0,0,1-.989-1.058,3.092,3.092,0,0,1-.362-1.587,3.4,3.4,0,0,1,.386-1.683,3.71,3.71,0,0,1,1.014-1.178,4.243,4.243,0,0,1,1.4-.7,5.53,5.53,0,0,1,1.52-.216,5.337,5.337,0,0,1,2.486.553,4.974,4.974,0,0,1,1.689,1.467l1.617-1.3a6.007,6.007,0,0,0-2.2-1.707,7.826,7.826,0,0,0-3.5-.721,8.023,8.023,0,0,0-2.244.313,6.592,6.592,0,0,0-2.075.986,5.267,5.267,0,0,0-1.52,1.732,5.724,5.724,0,0,0-.1,4.81,5.021,5.021,0,0,0,1.231,1.587,6.268,6.268,0,0,0,1.738,1.034c.652.265,1.3.505,1.979.721.652.216,1.255.409,1.858.625a7.359,7.359,0,0,1,1.569.794,3.541,3.541,0,0,1,1.086,1.154,3.5,3.5,0,0,1,.41,1.756,3.41,3.41,0,0,1-.41,1.683,3.992,3.992,0,0,1-1.062,1.227,4.6,4.6,0,0,1-1.448.745,5.186,5.186,0,0,1-1.569.241,5.265,5.265,0,0,1-4.61-2.525l-1.762,1.3a6.415,6.415,0,0,0,1.255,1.3,6.8,6.8,0,0,0,1.544.938,8.607,8.607,0,0,0,1.738.553,9.3,9.3,0,0,0,1.834.192,9.093,9.093,0,0,0,2.389-.337,5.746,5.746,0,0,0,3.6-2.862,5.437,5.437,0,0,0,.579-2.6,5.027,5.027,0,0,0-.531-2.477A5.249,5.249,0,0,0,1051.229,454.395Z" transform="translate(-976.157 -441.704)"/><path class="a" d="M1333.165,456.711l10.184-9.113h-2.944l-9.6,9.041h-.024V447.6h-2.052v20.125h2.052V457h.024l10.088,10.724h3.041Z" transform="translate(-1233.16 -445.631)"/></svg>