<svg xmlns="http://www.w3.org/2000/svg" width="19.278" height="7.747" viewBox="0 0 19.278 7.747"><defs><style>.a{fill:#343a40;}</style></defs><path class="a" d="M-97.823,227.7h-4.814a3.879,3.879,0,0,0-3.708-2.757,3.879,3.879,0,0,0-3.708,2.757h-4.814a1.116,1.116,0,0,0-1.117,1.117,1.117,1.117,0,0,0,1.117,1.117h4.814a3.879,3.879,0,0,0,3.708,2.757,3.879,3.879,0,0,0,3.708-2.757h4.814a1.116,1.116,0,0,0,1.117-1.117A1.116,1.116,0,0,0-97.823,227.7Zm-7.324,2.233a1.635,1.635,0,0,1-1.2.524,1.634,1.634,0,0,1-1.2-.524,1.632,1.632,0,0,1-.442-1.117,1.632,1.632,0,0,1,.442-1.117,1.634,1.634,0,0,1,1.2-.524,1.634,1.634,0,0,1,1.2.524,1.633,1.633,0,0,1,.442,1.117A1.633,1.633,0,0,1-105.147,229.934Z" transform="translate(115.984 -224.944)"/></svg>