<svg xmlns="http://www.w3.org/2000/svg" width="22.229" height="33.293" viewBox="0 0 22.229 33.293"><defs><style>.a{fill:#343a40;}</style></defs><path class="a" d="M-416.05,87.66h-20a1.116,1.116,0,0,0-1.117,1.117v26.637a3.8,3.8,0,0,0,3.8,3.8h3.13v1.129c0,.509.457.795.769.48l.774-.78a.4.4,0,0,1,.587,0l.773.78c.312.314.769.029.769-.48v-1.129h10.513a1.116,1.116,0,0,0,1.117-1.117V88.777A1.116,1.116,0,0,0-416.05,87.66Zm-1.117,23.954h-15.9V89.893h15.9Zm-13.067,3.625v1.74h-3.13a1.568,1.568,0,0,1-1.566-1.566,1.568,1.568,0,0,1,1.566-1.566h16.2v3.132h-9.4v-1.74Z" transform="translate(437.163 -87.66)"/><path class="a" d="M-412.043,106.841a1.135,1.135,0,0,0,.789-.328,1.124,1.124,0,0,0,.328-.789,1.126,1.126,0,0,0-.328-.792,1.132,1.132,0,0,0-1.007-.305,1.2,1.2,0,0,0-.208.065,1.026,1.026,0,0,0-.194.1,1.171,1.171,0,0,0-.169.139,1.024,1.024,0,0,0-.139.171.952.952,0,0,0-.1.191,1.03,1.03,0,0,0-.062.211,1.068,1.068,0,0,0-.022.218,1.124,1.124,0,0,0,.328.789A1.126,1.126,0,0,0-412.043,106.841Z" transform="translate(419.116 -100.402)"/><ellipse class="a" cx="1.117" cy="1.117" rx="1.117" ry="1.117" transform="translate(5.956 15.862)"/><ellipse class="a" cx="1.117" cy="1.117" rx="1.117" ry="1.117" transform="translate(5.956 8.091)"/><ellipse class="a" cx="1.117" cy="1.117" rx="1.117" ry="1.117" transform="translate(5.956 11.977)"/><path class="a" d="M-411.014,167.947a1.025,1.025,0,0,0-.1-.194,1.163,1.163,0,0,0-.139-.171,1.132,1.132,0,0,0-1.007-.305,1.194,1.194,0,0,0-.208.064,1.026,1.026,0,0,0-.194.1,1.171,1.171,0,0,0-.169.139,1.024,1.024,0,0,0-.139.171.907.907,0,0,0-.1.194,1.008,1.008,0,0,0-.062.208,1.069,1.069,0,0,0-.022.218,1.087,1.087,0,0,0,.022.218,1.055,1.055,0,0,0,.062.208.952.952,0,0,0,.1.191,1.024,1.024,0,0,0,.139.171,1.027,1.027,0,0,0,.169.139,1.025,1.025,0,0,0,.194.1,1.2,1.2,0,0,0,.208.065,1.069,1.069,0,0,0,.218.022,1.124,1.124,0,0,0,.789-.328,1.162,1.162,0,0,0,.139-.171,1.084,1.084,0,0,0,.1-.191,1.253,1.253,0,0,0,.065-.208,1.087,1.087,0,0,0,.022-.218,1.069,1.069,0,0,0-.022-.218A1.185,1.185,0,0,0-411.014,167.947Z" transform="translate(419.116 -147.507)"/></svg>